<?xml version="1.0" standalone="no"?>
<!DOCTYPE svg PUBLIC "-//W3C//DTD SVG 20010904//EN"
 "http://www.w3.org/TR/2001/REC-SVG-20010904/DTD/svg10.dtd">
<svg version="1.0" xmlns="http://www.w3.org/2000/svg"
 width="512.000000pt" height="512.000000pt" viewBox="0 0 512.000000 512.000000"
 preserveAspectRatio="xMidYMid meet">

<g transform="translate(0.000000,512.000000) scale(0.100000,-0.100000)"
fill="#000000" stroke="none">
<path d="M4500 5113 c-219 -37 -409 -230 -439 -447 -16 -113 8 -247 60 -335
l20 -35 -1659 -1658 -1658 -1659 -35 20 c-140 83 -331 87 -486 11 -177 -87
-286 -248 -300 -445 -10 -154 43 -291 157 -405 114 -114 251 -167 405 -157
141 10 245 58 347 161 163 162 200 433 87 625 l-20 35 1659 1658 1658 1659 35
-20 c88 -52 222 -76 335 -61 142 20 305 130 379 255 92 159 97 358 12 519 -41
78 -145 182 -223 223 -98 52 -228 74 -334 56z m215 -238 c135 -59 210 -200
183 -345 -13 -71 -37 -116 -88 -167 -67 -68 -119 -88 -225 -88 -75 0 -98 4
-135 24 -61 32 -116 86 -148 146 -23 43 -27 62 -27 140 0 106 20 158 88 225
50 51 86 70 157 86 69 15 130 8 195 -21z m-4040 -4057 c60 -31 114 -86 146
-148 34 -65 34 -204 1 -272 -27 -55 -91 -122 -142 -148 -84 -43 -205 -43 -289
-1 -181 93 -232 332 -103 486 33 40 92 82 139 100 61 23 186 15 248 -17z"/>
</g>
</svg>
