<?xml version="1.0" standalone="no"?>
<!DOCTYPE svg PUBLIC "-//W3C//DTD SVG 20010904//EN"
 "http://www.w3.org/TR/2001/REC-SVG-20010904/DTD/svg10.dtd">
<svg version="1.0" xmlns="http://www.w3.org/2000/svg"
 width="512.000000pt" height="512.000000pt" viewBox="0 0 512.000000 512.000000"
 preserveAspectRatio="xMidYMid meet">

<g transform="translate(0.000000,512.000000) scale(0.100000,-0.100000)"
fill="#000000" stroke="none">
<path d="M4465 4365 c-23 -22 -25 -31 -25 -125 l0 -100 -2078 0 c-1603 0
-2081 -3 -2090 -12 -9 -9 -12 -326 -12 -1364 l0 -1352 -106 -4 c-102 -3 -107
-4 -130 -31 l-24 -28 0 -275 c0 -287 5 -322 45 -338 9 -3 145 -6 301 -6 l285
0 24 25 c23 22 25 31 25 125 l0 100 2078 0 c1603 0 2081 3 2090 12 9 9 12 326
12 1364 l0 1352 106 4 c102 3 107 4 130 31 l24 28 0 275 c0 287 -5 322 -45
338 -9 3 -145 6 -301 6 l-285 0 -24 -25z m485 -315 l0 -170 -170 0 -170 0 0
170 0 170 170 0 170 0 0 -170z m-510 -183 c0 -98 1 -105 26 -128 23 -21 36
-24 125 -27 l99 -4 0 -1279 0 -1279 -2005 0 -2005 0 0 103 c0 98 -1 105 -26
128 -23 21 -36 24 -125 27 l-99 4 0 1279 0 1279 2005 0 2005 0 0 -103z m-3930
-2797 l0 -170 -170 0 -170 0 0 170 0 170 170 0 170 0 0 -170z"/>
</g>
</svg>
