<?xml version="1.0" standalone="no"?>
<!DOCTYPE svg PUBLIC "-//W3C//DTD SVG 20010904//EN"
 "http://www.w3.org/TR/2001/REC-SVG-20010904/DTD/svg10.dtd">
<svg version="1.0" xmlns="http://www.w3.org/2000/svg"
 width="512.000000pt" height="512.000000pt" viewBox="0 0 512.000000 512.000000"
 preserveAspectRatio="xMidYMid meet">

<g transform="translate(0.000000,512.000000) scale(0.100000,-0.100000)"
fill="#000000" stroke="none">
<path d="M501 5105 c-300 -68 -518 -355 -497 -655 3 -47 12 -108 20 -136 33
-125 125 -260 229 -339 41 -31 149 -87 210 -108 16 -6 17 -77 17 -1307 0
-1230 -1 -1301 -17 -1307 -61 -21 -169 -77 -210 -108 -68 -51 -149 -149 -185
-224 -121 -253 -74 -536 122 -731 195 -196 478 -243 731 -122 75 36 173 117
224 185 31 41 87 149 108 210 6 16 77 17 1307 17 1230 0 1301 -1 1307 -17 21
-61 77 -169 108 -210 51 -68 149 -149 224 -185 253 -121 536 -74 731 122 196
195 243 478 122 731 -36 75 -117 173 -185 224 -41 31 -149 87 -209 108 -17 6
-18 77 -18 1307 0 1230 1 1301 18 1307 60 21 168 77 209 108 107 81 201 223
234 355 22 91 18 252 -9 335 -95 286 -358 471 -642 451 -47 -3 -108 -12 -136
-20 -125 -33 -260 -125 -339 -229 -31 -41 -87 -149 -108 -209 -6 -17 -77 -18
-1307 -18 -1230 0 -1301 1 -1307 18 -21 60 -77 168 -108 209 -78 104 -213 195
-339 230 -79 21 -230 25 -305 8z m271 -337 c199 -92 248 -358 93 -513 -122
-121 -328 -121 -450 0 -78 78 -111 204 -82 306 57 194 259 289 439 207z m3840
0 c70 -32 124 -86 157 -157 54 -115 27 -264 -64 -356 -122 -121 -328 -121
-450 0 -78 78 -111 204 -82 306 57 194 259 289 439 207z m-744 -470 c3 -13 25
-62 49 -110 59 -119 152 -212 271 -271 48 -24 97 -46 110 -49 l22 -6 -2 -1302
-3 -1301 -58 -24 c-156 -63 -272 -166 -340 -304 -24 -47 -46 -96 -49 -109 l-6
-22 -1302 2 -1301 3 -24 58 c-71 176 -196 301 -372 372 l-58 24 -3 1301 -2
1302 22 6 c46 12 174 82 221 121 26 22 66 62 88 88 39 47 109 175 121 221 l6
22 1302 0 1302 0 6 -22z m-3096 -3370 c70 -32 124 -86 157 -157 54 -115 27
-264 -64 -356 -122 -121 -328 -121 -450 0 -78 78 -111 204 -82 306 57 194 259
289 439 207z m3840 0 c70 -32 124 -86 157 -157 54 -115 27 -264 -64 -356 -122
-121 -328 -121 -450 0 -78 78 -111 204 -82 306 57 194 259 289 439 207z"/>
</g>
</svg>
