<?xml version="1.0" encoding="utf-8"?>
<!-- Svg Vector Icons : http://www.onlinewebfonts.com/icon -->
<!DOCTYPE svg PUBLIC "-//W3C//DTD SVG 1.1//EN" "http://www.w3.org/Graphics/SVG/1.1/DTD/svg11.dtd">
<svg version="1.1" xmlns="http://www.w3.org/2000/svg" xmlns:xlink="http://www.w3.org/1999/xlink" x="0px" y="0px" viewBox="0 0 1000 1000" enable-background="new 0 0 1000 1000" xml:space="preserve">
<metadata> Svg Vector Icons : http://www.onlinewebfonts.com/icon </metadata>
<g><g transform="translate(0.000000,512.000000) scale(0.100000,-0.100000)"><path d="M718.2,120v-4900h2342.8h2342.8l-195.3,195.2c-210.5,210.6-346.4,392.4-480.4,637.4c-93.8,172.3-202.9,446-239.3,599.1l-23,99.5H3204.6H1943.2v306.2v306.3h1225h1225v82.3c0,185.7,55.5,490,145.5,794.3l11.5,42.1H3246.7H1943.2v306.3v306.3h1460.4l1458.5,1.9l67,99.5c157,233.5,537.8,570.4,880.5,777.1l67,40.2H3910.9H1943.2V120v306.3h2450h2450V267.4V108.5l210.5,7.7c290.9,11.5,668-42.1,980-139.7c32.5-11.5,34.4,32.5,34.4,1295.8v1307.3L6847.1,3800.7L5627.8,5020H3172.1H718.2V120z M6537,3479.2l909.2-909.2h-914.9h-913v909.2c0,499.6,1.9,909.2,5.7,909.2C5625.9,4388.4,6037.4,3978.7,6537,3479.2z M4393.2,3182.5v-306.3h-1225h-1225v306.3v306.3h1225h1225V3182.5z M6843.2,1651.2V1345h-2450h-2450v306.2v306.3h2450h2450V1651.2z"/><path d="M6795.4-523.1c-1292-227.8-2084.4-1537-1682.5-2773.5c241.2-738.8,857.5-1280.5,1644.2-1448.9c147.4-30.6,637.4-30.6,784.8,0c884.3,189.5,1527.4,832.6,1716.9,1716.9c30.6,147.4,30.6,637.4,0,784.8c-193.3,907.3-874.7,1569.5-1772.4,1722.7C7279.6-486.8,7000.2-486.8,6795.4-523.1z M7425.1-1143.3c206.7-51.7,352.2-135.9,495.7-285.2c141.7-145.5,210.5-271.8,264.1-476.6c114.8-453.6-65.1-957-428.7-1192.5c-59.3-38.3-153.1-82.3-204.8-95.7l-95.7-24.9v-168.4V-3555h-306.3h-306.3v380.9v380.9l235.4,7.7c206.7,5.8,245,13.4,331.1,57.4c143.5,74.6,204.8,134,277.5,268c59.3,111,65.1,134,65.1,283.3c0,151.2-5.7,172.3-68.9,287.1c-120.6,220.1-338.8,340.7-581.9,321.6c-298.6-24.9-505.3-254.6-553.2-612.5l-19.1-149.3h-229.7h-227.8l13.4,141.6c28.7,327.3,139.7,580,338.8,779C6688.2-1143.3,7051.9-1047.6,7425.1-1143.3z M7298.8-3899.5c141.7-65.1,195.2-248.8,118.7-417.3c-65.1-141.6-248.8-195.2-417.3-118.7c-63.2,28.7-90,55.5-118.7,118.7c-76.6,168.4-23,352.2,118.7,417.3c45.9,21,112.9,38.3,149.3,38.3C7185.9-3861.2,7252.9-3878.5,7298.8-3899.5z"/></g></g>
</svg>