<?xml version="1.0" standalone="no"?>
<!DOCTYPE svg PUBLIC "-//W3C//DTD SVG 20010904//EN"
 "http://www.w3.org/TR/2001/REC-SVG-20010904/DTD/svg10.dtd">
<svg version="1.0" xmlns="http://www.w3.org/2000/svg"
 width="512.000000pt" height="512.000000pt" viewBox="0 0 512.000000 512.000000"
 preserveAspectRatio="xMidYMid meet">

<g transform="translate(0.000000,512.000000) scale(0.100000,-0.100000)"
fill="#000000" stroke="none">
<path d="M782 5104 c-18 -9 -43 -31 -55 -48 -22 -30 -22 -38 -25 -376 -2 -322
-1 -347 16 -380 25 -46 90 -80 154 -80 26 0 48 -3 48 -6 0 -6 -630 -1101 -666
-1156 -24 -37 -25 -38 -88 -38 -74 0 -121 -25 -148 -80 -16 -31 -18 -71 -18
-365 0 -294 2 -334 18 -365 27 -55 74 -80 147 -80 38 0 67 -5 73 -12 6 -7 165
-282 355 -610 l345 -598 -57 0 c-73 0 -136 -31 -162 -80 -17 -32 -19 -62 -19
-368 0 -369 2 -380 64 -425 31 -22 35 -22 383 -22 339 0 352 1 379 21 60 45
69 66 73 190 l3 114 958 0 958 0 3 -114 c4 -124 13 -145 73 -190 27 -20 40
-21 379 -21 486 0 447 -39 447 447 0 303 -2 336 -18 368 -26 50 -90 80 -168
80 l-62 0 345 597 c190 329 349 604 355 611 7 7 36 12 78 12 53 0 74 5 101 23
68 45 69 54 69 422 0 368 -1 377 -69 422 -27 19 -48 23 -105 23 l-71 0 -345
592 c-190 325 -346 595 -348 600 -2 4 23 8 55 8 75 0 139 31 165 80 16 32 18
65 18 368 0 369 -2 380 -64 425 -31 22 -35 22 -383 22 -339 0 -352 -1 -379
-21 -59 -43 -68 -67 -72 -179 l-4 -105 -958 0 -958 0 -4 105 c-4 112 -13 135
-72 179 -26 20 -42 21 -369 23 -300 3 -346 1 -375 -13z m518 -434 l0 -150
-150 0 -150 0 0 150 0 150 150 0 150 0 0 -150z m2820 0 l0 -150 -150 0 -150 0
0 150 0 150 150 0 150 0 0 -150z m-598 -255 c4 -102 15 -127 72 -169 22 -17
47 -22 133 -26 l106 -5 343 -590 c189 -324 344 -593 344 -597 0 -5 -43 -8 -95
-8 -109 0 -140 -11 -177 -62 l-23 -33 0 -350 0 -350 23 -33 c37 -51 68 -62
177 -62 77 0 96 -3 93 -14 -2 -7 -158 -281 -347 -609 l-344 -595 -103 -4 c-85
-2 -107 -7 -130 -24 -55 -41 -67 -68 -72 -159 l-5 -85 -957 0 -957 0 -5 85
c-5 91 -17 118 -72 159 -23 18 -45 22 -135 24 l-108 4 -344 595 c-189 328
-345 602 -347 609 -3 11 17 14 98 14 114 0 145 11 182 62 l23 33 0 350 0 350
-23 33 c-37 51 -68 62 -182 62 -55 0 -100 4 -100 9 0 5 153 275 341 599 l340
590 114 4 c96 2 118 6 141 24 57 42 68 67 72 169 l4 95 958 0 958 0 4 -95z
m-2922 -1840 l0 -145 -150 0 -150 0 0 145 0 145 150 0 150 0 0 -145z m4220 0
l0 -145 -150 0 -150 0 0 145 0 145 150 0 150 0 0 -145z m-3520 -2115 l0 -150
-150 0 -150 0 0 150 0 150 150 0 150 0 0 -150z m2820 0 l0 -150 -150 0 -150 0
0 150 0 150 150 0 150 0 0 -150z"/>
</g>
</svg>
